<svg id="Calque_1" data-name="Calque 1" xmlns="http://www.w3.org/2000/svg" xmlns:xlink="http://www.w3.org/1999/xlink" viewBox="0 0 715.38 951.66"><defs><style>.cls-1{fill:#2b368b;stroke:#2b368b;stroke-width:25px;}.cls-1,.cls-3{stroke-miterlimit:10;}.cls-2{fill:url(#Dégradé_sans_nom_29);}.cls-3{fill:none;stroke:#2e3192;stroke-width:0.25px;}</style><linearGradient id="Dégradé_sans_nom_29" x1="798.38" y1="626.19" x2="143.22" y2="662.95" gradientUnits="userSpaceOnUse"><stop offset="0" stop-color="#2254a5"/><stop offset="0.19" stop-color="#427abe"/><stop offset="0.36" stop-color="#5896cf"/><stop offset="0.45" stop-color="#61a0d6"/><stop offset="0.62" stop-color="#84b2df"/><stop offset="0.76" stop-color="#9bbee4"/><stop offset="0.85" stop-color="#a3c2e6"/><stop offset="0.88" stop-color="#c2d7ef"/><stop offset="0.91" stop-color="#dde8f6"/><stop offset="0.94" stop-color="#f0f5fb"/><stop offset="0.97" stop-color="#fbfdfe"/><stop offset="1" stop-color="#fff"/></linearGradient></defs><title>Axentix</title><path class="cls-1" d="M582.78,36.67H461.18L213.53,963.33h119L381.29,757.8s20-71.37,20.11-72.65L519.76,184.32l121.6,500.83h-4.9c4.81,7.09,8.26,14.64,9.43,23a46.2,46.2,0,0,1,.43,6.94c8.86,18.82,15.67,38.64,14.75,58.39l45.09,189.83H828.65Z" transform="translate(-129.53 -24.17)"/><path class="cls-2" d="M334.87,582,333,585.58c2.3,41.15,27,79.18,67.88,102.18,19.46,10.91,43.91,22.07,74.32,31.84,34,66.77,105.21,115.77,191.7,130,16.5,2.71,34.84,5,55.06,6.75,6.07,4.23,46.27,30,89-5.64,0,0-6.83-129.43-61.58-210.26,0,0-27.07-75.72-283.62-129.71-9.72-2-19.29-4.19-28.89-6.7-37.23-9.56-144.18-37.34-306.53-81.63l-.63.15C131.21,426.22,170.41,518.94,334.87,582Z" transform="translate(-129.53 -24.17)"/><path class="cls-3" d="M721.17,855.75l.81.6c6.07,4.23,46.27,30,89-5.64,0,0-6.83-129.43-61.58-210.26,0,0-27.07-75.72-283.62-129.71-9.72-2-19.29-4.19-28.89-6.7-37.23-9.56-144.18-37.34-306.53-81.63" transform="translate(-129.53 -24.17)"/><path class="cls-3" d="M129.65,422.45s0,.05.08.11c1.48,3.66,40.68,96.38,205.14,159.41,47,18,104.22,33.61,173.72,44.06" transform="translate(-129.53 -24.17)"/><path class="cls-3" d="M723.27,856.45l-1.29-.1c-20.22-1.73-38.56-4-55.06-6.75-86.49-14.23-157.65-63.23-191.7-130" transform="translate(-129.53 -24.17)"/><path class="cls-3" d="M333,585.58c2.3,41.15,27,79.18,67.88,102.18,19.46,10.91,43.91,22.07,74.32,31.84,37.09,12,82.94,21.87,139.26,26.85" transform="translate(-129.53 -24.17)"/></svg>